<?xml version="1.0" standalone="no"?>
<!DOCTYPE svg PUBLIC "-//W3C//DTD SVG 20010904//EN"
 "http://www.w3.org/TR/2001/REC-SVG-20010904/DTD/svg10.dtd">
<svg version="1.0" xmlns="http://www.w3.org/2000/svg"
 width="139.000000pt" height="156.000000pt" viewBox="0 0 139.000000 156.000000"
 preserveAspectRatio="xMidYMid meet">
<metadata>
Created by potrace 1.10, written by Peter Selinger 2001-2011
</metadata>
<g transform="translate(0.000000,156.000000) scale(0.100000,-0.100000)"
fill="#6366f1" stroke="none">
<path d="M405 1276 l-280 -162 0 -333 0 -334 120 -70 c66 -38 194 -112 284
-164 l164 -94 216 125 c119 68 246 141 283 162 l67 39 1 65 c0 36 2 185 3 332
l2 267 -275 160 c-152 88 -282 162 -290 165 -8 2 -141 -69 -295 -158z m483
-106 c137 -173 166 -216 153 -222 -9 -4 -178 -48 -377 -97 -198 -50 -368 -93
-378 -97 -11 -4 9 34 52 102 97 153 203 320 286 453 63 101 72 111 83 95 7
-11 88 -116 181 -234z m-350 33 c-72 -115 -162 -257 -200 -318 -38 -60 -73
-114 -77 -118 -4 -4 -13 12 -20 35 -7 24 -33 101 -58 171 -25 70 -44 129 -42
131 2 2 67 39 144 83 77 44 194 112 260 151 66 39 121 71 122 72 1 0 -57 -93
-129 -207z m292 140 c47 -28 157 -92 245 -143 88 -50 163 -97 167 -103 4 -7 7
-142 7 -302 0 -183 -4 -283 -9 -270 -5 11 -43 110 -84 220 l-74 200 37 30 c56
46 127 117 114 113 -7 -2 -44 -32 -83 -67 -40 -35 -75 -60 -80 -55 -6 7 -286
361 -334 423 -13 17 -15 18 94 -46z m-634 -455 l52 -150 -55 -121 c-30 -67
-56 -123 -57 -124 0 -1 -1 124 -1 277 0 153 2 276 5 274 2 -3 28 -73 56 -156z
m859 25 c-3 -10 -43 -124 -87 -253 -44 -129 -82 -236 -83 -238 -2 -2 -138 68
-303 155 -165 87 -295 160 -288 162 26 10 733 188 750 190 13 1 16 -3 11 -16z
m113 -240 l78 -212 -35 -5 c-20 -3 -92 -13 -161 -21 -69 -9 -131 -18 -139 -20
-9 -4 -11 0 -6 12 3 10 43 125 88 257 58 172 83 233 89 220 4 -11 43 -114 86
-231z m-886 20 c10 -16 98 -140 196 -278 99 -137 178 -251 177 -253 -1 -2 -96
52 -211 119 -115 66 -229 132 -254 146 -25 14 -46 27 -48 29 -5 3 112 264 118
264 3 0 13 -12 22 -27z m208 -86 c69 -36 181 -95 250 -131 68 -36 126 -70 128
-76 2 -6 -3 -19 -11 -28 -8 -9 -49 -65 -90 -125 l-75 -107 -68 97 c-63 91
-312 439 -338 473 -6 8 9 3 34 -11 25 -15 101 -56 170 -92z m620 -228 c-58
-34 -169 -99 -248 -145 -78 -46 -139 -78 -135 -71 4 7 43 63 87 125 l78 111
57 7 c31 4 94 12 141 19 47 7 94 13 105 14 11 0 -27 -27 -85 -60z"/>
</g>
</svg>
